<mxfile host="app.diagrams.net" modified="2024-04-30T09:29:10.144Z" agent="Mozilla/5.0 (Macintosh; Intel Mac OS X 10_15_7) AppleWebKit/537.36 (KHTML, like Gecko) Chrome/124.0.0.0 Safari/537.36" etag="4CicU1aTsM2v6cm_P3Fy" version="24.2.8" type="github">
  <diagram id="6UUS9BngQqoZ4q6VCx7F" name="Page-1">
    <mxGraphModel dx="954" dy="606" grid="1" gridSize="10" guides="1" tooltips="1" connect="1" arrows="1" fold="1" page="1" pageScale="1" pageWidth="827" pageHeight="1169" math="0" shadow="0">
      <root>
        <mxCell id="0" />
        <mxCell id="1" parent="0" />
        <mxCell id="10HyddcY0gIoOQVBEXPv-4" value="subscriber" style="shape=umlLifeline;perimeter=lifelinePerimeter;whiteSpace=wrap;html=1;container=1;collapsible=0;recursiveResize=0;outlineConnect=0;" parent="1" vertex="1">
          <mxGeometry x="30" y="60" width="100" height="820" as="geometry" />
        </mxCell>
        <mxCell id="10HyddcY0gIoOQVBEXPv-11" value="申请订阅channel" style="html=1;verticalAlign=bottom;endArrow=block;rounded=0;" parent="10HyddcY0gIoOQVBEXPv-4" edge="1">
          <mxGeometry x="0.2539" width="80" relative="1" as="geometry">
            <mxPoint x="50" y="421" as="sourcePoint" />
            <mxPoint x="209.5" y="421" as="targetPoint" />
            <mxPoint as="offset" />
          </mxGeometry>
        </mxCell>
        <mxCell id="10HyddcY0gIoOQVBEXPv-5" value="&amp;nbsp;SIP server" style="shape=umlLifeline;perimeter=lifelinePerimeter;whiteSpace=wrap;html=1;container=1;collapsible=0;recursiveResize=0;outlineConnect=0;" parent="1" vertex="1">
          <mxGeometry x="340" y="60" width="100" height="850" as="geometry" />
        </mxCell>
        <mxCell id="qBGxzSzK9V-PdyPtXiU0-2" value="md5 authenticate" style="text;html=1;align=center;verticalAlign=middle;resizable=0;points=[];autosize=1;strokeColor=none;fillColor=none;" parent="10HyddcY0gIoOQVBEXPv-5" vertex="1">
          <mxGeometry x="-50" y="134" width="110" height="20" as="geometry" />
        </mxCell>
        <mxCell id="qBGxzSzK9V-PdyPtXiU0-12" value="" style="endArrow=block;endFill=1;html=1;edgeStyle=orthogonalEdgeStyle;align=left;verticalAlign=top;rounded=0;" parent="10HyddcY0gIoOQVBEXPv-5" edge="1">
          <mxGeometry x="-1" relative="1" as="geometry">
            <mxPoint x="-100" y="230" as="sourcePoint" />
            <mxPoint x="50" y="230" as="targetPoint" />
          </mxGeometry>
        </mxCell>
        <mxCell id="qBGxzSzK9V-PdyPtXiU0-13" value="1" style="edgeLabel;resizable=0;html=1;align=left;verticalAlign=bottom;" parent="qBGxzSzK9V-PdyPtXiU0-12" connectable="0" vertex="1">
          <mxGeometry x="-1" relative="1" as="geometry" />
        </mxCell>
        <mxCell id="qBGxzSzK9V-PdyPtXiU0-14" value="response deviceID" style="edgeLabel;html=1;align=center;verticalAlign=middle;resizable=0;points=[];" parent="qBGxzSzK9V-PdyPtXiU0-12" vertex="1" connectable="0">
          <mxGeometry x="-0.2" y="2" relative="1" as="geometry">
            <mxPoint as="offset" />
          </mxGeometry>
        </mxCell>
        <mxCell id="qBGxzSzK9V-PdyPtXiU0-29" value="" style="html=1;verticalAlign=bottom;endArrow=block;rounded=0;" parent="10HyddcY0gIoOQVBEXPv-5" edge="1">
          <mxGeometry width="80" relative="1" as="geometry">
            <mxPoint x="-100" y="470" as="sourcePoint" />
            <mxPoint x="50" y="470" as="targetPoint" />
          </mxGeometry>
        </mxCell>
        <mxCell id="qBGxzSzK9V-PdyPtXiU0-30" value="get subscribe url &lt;br&gt;by deviceID/channel" style="edgeLabel;html=1;align=center;verticalAlign=middle;resizable=0;points=[];" parent="qBGxzSzK9V-PdyPtXiU0-29" vertex="1" connectable="0">
          <mxGeometry x="-0.208" relative="1" as="geometry">
            <mxPoint x="15" as="offset" />
          </mxGeometry>
        </mxCell>
        <mxCell id="qBGxzSzK9V-PdyPtXiU0-50" value="response subscribe req" style="endArrow=open;endSize=12;dashed=1;html=1;rounded=0;verticalAlign=bottom;" parent="10HyddcY0gIoOQVBEXPv-5" edge="1">
          <mxGeometry width="160" relative="1" as="geometry">
            <mxPoint x="50" y="643" as="sourcePoint" />
            <mxPoint x="-100.5" y="643" as="targetPoint" />
            <Array as="points">
              <mxPoint x="-39.5" y="643" />
            </Array>
          </mxGeometry>
        </mxCell>
        <mxCell id="10HyddcY0gIoOQVBEXPv-6" value="&amp;nbsp;media server" style="shape=umlLifeline;perimeter=lifelinePerimeter;whiteSpace=wrap;html=1;container=1;collapsible=0;recursiveResize=0;outlineConnect=0;" parent="1" vertex="1">
          <mxGeometry x="510" y="66" width="100" height="884" as="geometry" />
        </mxCell>
        <mxCell id="10HyddcY0gIoOQVBEXPv-20" value="UAC register SIP server :Authorization" style="html=1;verticalAlign=bottom;endArrow=block;rounded=0;" parent="10HyddcY0gIoOQVBEXPv-6" edge="1">
          <mxGeometry width="80" relative="1" as="geometry">
            <mxPoint x="210" y="130" as="sourcePoint" />
            <mxPoint x="-120" y="130" as="targetPoint" />
            <Array as="points">
              <mxPoint x="100.5" y="130" />
            </Array>
          </mxGeometry>
        </mxCell>
        <mxCell id="qBGxzSzK9V-PdyPtXiU0-35" value="" style="html=1;verticalAlign=bottom;endArrow=block;rounded=0;" parent="10HyddcY0gIoOQVBEXPv-6" edge="1">
          <mxGeometry width="80" relative="1" as="geometry">
            <mxPoint x="-120" y="535" as="sourcePoint" />
            <mxPoint x="50" y="535" as="targetPoint" />
          </mxGeometry>
        </mxCell>
        <mxCell id="qBGxzSzK9V-PdyPtXiU0-36" value="create channel by&lt;br&gt;&amp;nbsp;deviceID(srs)" style="edgeLabel;html=1;align=center;verticalAlign=middle;resizable=0;points=[];" parent="qBGxzSzK9V-PdyPtXiU0-35" vertex="1" connectable="0">
          <mxGeometry x="0.0988" y="-1" relative="1" as="geometry">
            <mxPoint as="offset" />
          </mxGeometry>
        </mxCell>
        <mxCell id="qBGxzSzK9V-PdyPtXiU0-47" value="" style="edgeStyle=segmentEdgeStyle;endArrow=classic;html=1;rounded=0;verticalAlign=bottom;" parent="10HyddcY0gIoOQVBEXPv-6" edge="1">
          <mxGeometry width="50" height="50" relative="1" as="geometry">
            <mxPoint x="49.5" y="684" as="sourcePoint" />
            <mxPoint x="49.5" y="724" as="targetPoint" />
            <Array as="points">
              <mxPoint x="-10" y="684" />
              <mxPoint x="-10" y="724" />
            </Array>
          </mxGeometry>
        </mxCell>
        <mxCell id="qBGxzSzK9V-PdyPtXiU0-55" value="push stream&amp;nbsp;" style="html=1;verticalAlign=bottom;endArrow=block;rounded=0;" parent="10HyddcY0gIoOQVBEXPv-6" target="10HyddcY0gIoOQVBEXPv-4" edge="1">
          <mxGeometry width="80" relative="1" as="geometry">
            <mxPoint x="50.5" y="734" as="sourcePoint" />
            <mxPoint x="-280" y="734" as="targetPoint" />
          </mxGeometry>
        </mxCell>
        <mxCell id="qBGxzSzK9V-PdyPtXiU0-56" value="" style="html=1;verticalAlign=bottom;endArrow=block;rounded=0;" parent="10HyddcY0gIoOQVBEXPv-6" edge="1">
          <mxGeometry width="80" relative="1" as="geometry">
            <mxPoint x="-120" y="314" as="sourcePoint" />
            <mxPoint x="209.5" y="314" as="targetPoint" />
          </mxGeometry>
        </mxCell>
        <mxCell id="qBGxzSzK9V-PdyPtXiU0-57" value="send message categry" style="edgeLabel;html=1;align=center;verticalAlign=middle;resizable=0;points=[];" parent="qBGxzSzK9V-PdyPtXiU0-56" vertex="1" connectable="0">
          <mxGeometry x="0.3014" y="2" relative="1" as="geometry">
            <mxPoint as="offset" />
          </mxGeometry>
        </mxCell>
        <mxCell id="10HyddcY0gIoOQVBEXPv-7" value="&amp;nbsp;publisher server" style="shape=umlLifeline;perimeter=lifelinePerimeter;whiteSpace=wrap;html=1;container=1;collapsible=0;recursiveResize=0;outlineConnect=0;" parent="1" vertex="1">
          <mxGeometry x="670" y="62" width="165" height="890" as="geometry" />
        </mxCell>
        <mxCell id="qBGxzSzK9V-PdyPtXiU0-17" value="keepAlive" style="html=1;verticalAlign=bottom;endArrow=block;rounded=0;" parent="10HyddcY0gIoOQVBEXPv-7" edge="1">
          <mxGeometry width="80" relative="1" as="geometry">
            <mxPoint x="50" y="347" as="sourcePoint" />
            <mxPoint x="-280.5" y="347" as="targetPoint" />
          </mxGeometry>
        </mxCell>
        <mxCell id="qBGxzSzK9V-PdyPtXiU0-42" value="200 OK(SDP 消息)" style="endArrow=open;endSize=12;dashed=1;html=1;rounded=0;verticalAlign=bottom;" parent="10HyddcY0gIoOQVBEXPv-7" target="10HyddcY0gIoOQVBEXPv-5" edge="1">
          <mxGeometry width="160" relative="1" as="geometry">
            <mxPoint x="50" y="630" as="sourcePoint" />
            <mxPoint x="-120" y="630" as="targetPoint" />
            <Array as="points">
              <mxPoint x="-39.5" y="630" />
            </Array>
          </mxGeometry>
        </mxCell>
        <mxCell id="qBGxzSzK9V-PdyPtXiU0-43" value="" style="html=1;verticalAlign=bottom;endArrow=block;rounded=0;" parent="10HyddcY0gIoOQVBEXPv-7" edge="1">
          <mxGeometry width="80" relative="1" as="geometry">
            <mxPoint x="-280" y="650" as="sourcePoint" />
            <mxPoint x="49.5" y="650" as="targetPoint" />
          </mxGeometry>
        </mxCell>
        <mxCell id="bC7WEgmkq_akePNeTHzV-6" value="ZLM: 支持rtp&lt;div&gt;SRS :需要GB28181&amp;nbsp;&lt;/div&gt;&lt;div&gt;才支持rtp&lt;/div&gt;" style="text;html=1;align=left;verticalAlign=middle;resizable=0;points=[];autosize=1;strokeColor=none;fillColor=none;" vertex="1" parent="10HyddcY0gIoOQVBEXPv-7">
          <mxGeometry x="60" y="688" width="130" height="60" as="geometry" />
        </mxCell>
        <mxCell id="10HyddcY0gIoOQVBEXPv-9" value="iot" style="shape=umlLifeline;perimeter=lifelinePerimeter;whiteSpace=wrap;html=1;container=1;collapsible=0;recursiveResize=0;outlineConnect=0;" parent="1" vertex="1">
          <mxGeometry x="190" y="60" width="100" height="920" as="geometry" />
        </mxCell>
        <mxCell id="10HyddcY0gIoOQVBEXPv-14" value="" style="html=1;verticalAlign=bottom;endArrow=block;rounded=0;" parent="10HyddcY0gIoOQVBEXPv-9" edge="1">
          <mxGeometry x="-0.005" y="10" width="80" relative="1" as="geometry">
            <mxPoint x="50" y="421" as="sourcePoint" />
            <mxPoint x="49.5" y="461" as="targetPoint" />
            <Array as="points">
              <mxPoint x="80" y="421" />
              <mxPoint x="80" y="461" />
            </Array>
            <mxPoint as="offset" />
          </mxGeometry>
        </mxCell>
        <mxCell id="qBGxzSzK9V-PdyPtXiU0-10" value="" style="edgeStyle=segmentEdgeStyle;endArrow=classic;html=1;rounded=0;" parent="10HyddcY0gIoOQVBEXPv-9" edge="1">
          <mxGeometry width="50" height="50" relative="1" as="geometry">
            <mxPoint x="49.5" y="180" as="sourcePoint" />
            <mxPoint x="49.5" y="220" as="targetPoint" />
            <Array as="points">
              <mxPoint x="-10" y="180" />
              <mxPoint x="-10" y="220" />
            </Array>
          </mxGeometry>
        </mxCell>
        <mxCell id="qBGxzSzK9V-PdyPtXiU0-52" value="respnse apply req&lt;br&gt;(subsribe rul)" style="endArrow=open;endSize=12;dashed=1;html=1;rounded=0;verticalAlign=bottom;" parent="10HyddcY0gIoOQVBEXPv-9" edge="1">
          <mxGeometry width="160" relative="1" as="geometry">
            <mxPoint x="50" y="650" as="sourcePoint" />
            <mxPoint x="-110" y="650" as="targetPoint" />
            <Array as="points">
              <mxPoint x="-39.5" y="650" />
            </Array>
          </mxGeometry>
        </mxCell>
        <mxCell id="10HyddcY0gIoOQVBEXPv-15" value="&lt;span style=&quot;font-size: 11px ; background-color: rgb(255 , 255 , 255)&quot;&gt;check device online&lt;/span&gt;" style="text;html=1;align=center;verticalAlign=middle;resizable=0;points=[];autosize=1;strokeColor=none;fillColor=none;" parent="1" vertex="1">
          <mxGeometry x="220" y="489" width="120" height="20" as="geometry" />
        </mxCell>
        <mxCell id="10HyddcY0gIoOQVBEXPv-16" value="UAC register SIP server" style="html=1;verticalAlign=bottom;endArrow=block;rounded=0;" parent="1" source="10HyddcY0gIoOQVBEXPv-7" target="10HyddcY0gIoOQVBEXPv-5" edge="1">
          <mxGeometry width="80" relative="1" as="geometry">
            <mxPoint x="720" y="120" as="sourcePoint" />
            <mxPoint x="800" y="120" as="targetPoint" />
            <Array as="points">
              <mxPoint x="610" y="130" />
            </Array>
          </mxGeometry>
        </mxCell>
        <mxCell id="10HyddcY0gIoOQVBEXPv-19" value="UAS 401 www-Authenticate&amp;nbsp;" style="html=1;verticalAlign=bottom;endArrow=open;dashed=1;endSize=8;rounded=0;" parent="1" source="10HyddcY0gIoOQVBEXPv-5" target="10HyddcY0gIoOQVBEXPv-7" edge="1">
          <mxGeometry relative="1" as="geometry">
            <mxPoint x="470" y="150" as="sourcePoint" />
            <mxPoint x="390" y="150" as="targetPoint" />
            <Array as="points">
              <mxPoint x="550" y="160" />
            </Array>
          </mxGeometry>
        </mxCell>
        <mxCell id="qBGxzSzK9V-PdyPtXiU0-1" value="" style="html=1;verticalAlign=bottom;endArrow=block;rounded=0;" parent="1" source="10HyddcY0gIoOQVBEXPv-5" target="10HyddcY0gIoOQVBEXPv-5" edge="1">
          <mxGeometry width="80" relative="1" as="geometry">
            <mxPoint x="340" y="210" as="sourcePoint" />
            <mxPoint x="420" y="210" as="targetPoint" />
            <Array as="points">
              <mxPoint x="360" y="190" />
              <mxPoint x="340" y="190" />
              <mxPoint x="330" y="190" />
              <mxPoint x="330" y="200" />
              <mxPoint x="330" y="210" />
              <mxPoint x="330" y="220" />
              <mxPoint x="360" y="220" />
            </Array>
          </mxGeometry>
        </mxCell>
        <mxCell id="qBGxzSzK9V-PdyPtXiU0-6" value="" style="edgeStyle=segmentEdgeStyle;endArrow=classic;html=1;rounded=0;" parent="1" edge="1">
          <mxGeometry width="50" height="50" relative="1" as="geometry">
            <mxPoint x="389.5" y="304" as="sourcePoint" />
            <mxPoint x="390" y="356" as="targetPoint" />
            <Array as="points">
              <mxPoint x="390" y="290" />
              <mxPoint x="330" y="290" />
              <mxPoint x="330" y="360" />
              <mxPoint x="390" y="360" />
            </Array>
          </mxGeometry>
        </mxCell>
        <mxCell id="qBGxzSzK9V-PdyPtXiU0-7" value="1. session :deviceID&lt;br&gt;2. session expire timer&lt;br&gt;3. keepAlive timeout counter&lt;br&gt;4. query catalog timer" style="text;html=1;align=left;verticalAlign=middle;resizable=0;points=[];autosize=1;strokeColor=none;fillColor=none;" parent="1" vertex="1">
          <mxGeometry x="300" y="299" width="170" height="60" as="geometry" />
        </mxCell>
        <mxCell id="qBGxzSzK9V-PdyPtXiU0-9" value="device online" style="html=1;verticalAlign=bottom;endArrow=block;rounded=0;" parent="1" edge="1">
          <mxGeometry width="80" relative="1" as="geometry">
            <mxPoint x="389.5" y="240" as="sourcePoint" />
            <mxPoint x="239.5" y="240" as="targetPoint" />
            <Array as="points">
              <mxPoint x="330" y="240" />
            </Array>
          </mxGeometry>
        </mxCell>
        <mxCell id="qBGxzSzK9V-PdyPtXiU0-11" value="1. check device&lt;br&gt;2. update device status" style="text;html=1;align=left;verticalAlign=middle;resizable=0;points=[];autosize=1;strokeColor=none;fillColor=none;" parent="1" vertex="1">
          <mxGeometry x="129" y="246" width="140" height="30" as="geometry" />
        </mxCell>
        <mxCell id="qBGxzSzK9V-PdyPtXiU0-15" value="200" style="html=1;verticalAlign=bottom;endArrow=open;dashed=1;endSize=8;rounded=0;" parent="1" edge="1">
          <mxGeometry relative="1" as="geometry">
            <mxPoint x="389.5" y="366" as="sourcePoint" />
            <mxPoint x="719.5" y="366" as="targetPoint" />
            <Array as="points">
              <mxPoint x="430" y="366" />
            </Array>
          </mxGeometry>
        </mxCell>
        <mxCell id="qBGxzSzK9V-PdyPtXiU0-27" value="" style="endArrow=block;startArrow=block;endFill=1;startFill=1;html=1;rounded=0;verticalAlign=bottom;" parent="1" edge="1">
          <mxGeometry width="160" relative="1" as="geometry">
            <mxPoint x="389.5" y="430" as="sourcePoint" />
            <mxPoint x="719.5" y="430" as="targetPoint" />
            <Array as="points">
              <mxPoint x="570" y="430" />
            </Array>
          </mxGeometry>
        </mxCell>
        <mxCell id="qBGxzSzK9V-PdyPtXiU0-28" value="register flush" style="text;html=1;align=center;verticalAlign=middle;resizable=0;points=[];autosize=1;strokeColor=none;fillColor=none;" parent="1" vertex="1">
          <mxGeometry x="522" y="414" width="80" height="20" as="geometry" />
        </mxCell>
        <mxCell id="qBGxzSzK9V-PdyPtXiU0-32" value="1. session check&lt;br&gt;2. channel status check" style="text;html=1;align=left;verticalAlign=middle;resizable=0;points=[];autosize=1;strokeColor=none;fillColor=none;" parent="1" vertex="1">
          <mxGeometry x="381" y="541" width="140" height="30" as="geometry" />
        </mxCell>
        <mxCell id="qBGxzSzK9V-PdyPtXiU0-33" value="" style="html=1;verticalAlign=bottom;endArrow=block;rounded=0;" parent="1" edge="1">
          <mxGeometry width="80" relative="1" as="geometry">
            <mxPoint x="390" y="665" as="sourcePoint" />
            <mxPoint x="719.5" y="665" as="targetPoint" />
          </mxGeometry>
        </mxCell>
        <mxCell id="qBGxzSzK9V-PdyPtXiU0-34" value="send invite by ssrc(SDP消息,steam_mode,video)" style="edgeLabel;html=1;align=center;verticalAlign=middle;resizable=0;points=[];" parent="qBGxzSzK9V-PdyPtXiU0-33" vertex="1" connectable="0">
          <mxGeometry x="-0.0932" y="2" relative="1" as="geometry">
            <mxPoint as="offset" />
          </mxGeometry>
        </mxCell>
        <mxCell id="qBGxzSzK9V-PdyPtXiU0-37" value="ssrc" style="endArrow=open;endSize=12;dashed=1;html=1;rounded=0;verticalAlign=bottom;" parent="1" edge="1">
          <mxGeometry width="160" relative="1" as="geometry">
            <mxPoint x="557" y="642" as="sourcePoint" />
            <mxPoint x="387" y="642" as="targetPoint" />
            <Array as="points">
              <mxPoint x="467.5" y="642" />
            </Array>
          </mxGeometry>
        </mxCell>
        <mxCell id="qBGxzSzK9V-PdyPtXiU0-38" value="" style="edgeStyle=segmentEdgeStyle;endArrow=classic;html=1;rounded=0;verticalAlign=bottom;" parent="1" source="10HyddcY0gIoOQVBEXPv-5" target="10HyddcY0gIoOQVBEXPv-5" edge="1">
          <mxGeometry width="50" height="50" relative="1" as="geometry">
            <mxPoint x="519.5" y="570" as="sourcePoint" />
            <mxPoint x="400" y="600" as="targetPoint" />
            <Array as="points">
              <mxPoint x="460" y="530" />
              <mxPoint x="460" y="580" />
            </Array>
          </mxGeometry>
        </mxCell>
        <mxCell id="qBGxzSzK9V-PdyPtXiU0-39" value="" style="edgeStyle=segmentEdgeStyle;endArrow=classic;html=1;rounded=0;verticalAlign=bottom;" parent="1" source="10HyddcY0gIoOQVBEXPv-6" target="10HyddcY0gIoOQVBEXPv-6" edge="1">
          <mxGeometry width="50" height="50" relative="1" as="geometry">
            <mxPoint x="570" y="600" as="sourcePoint" />
            <mxPoint x="570" y="640" as="targetPoint" />
            <Array as="points">
              <mxPoint x="620" y="600" />
              <mxPoint x="620" y="640" />
            </Array>
          </mxGeometry>
        </mxCell>
        <mxCell id="qBGxzSzK9V-PdyPtXiU0-40" value="1. ssrc: strream&lt;br&gt;2. subsriber timer check" style="text;html=1;align=left;verticalAlign=middle;resizable=0;points=[];autosize=1;strokeColor=none;fillColor=none;" parent="1" vertex="1">
          <mxGeometry x="563" y="604" width="140" height="30" as="geometry" />
        </mxCell>
        <mxCell id="qBGxzSzK9V-PdyPtXiU0-44" value="ACK :握手确认，不需要回复" style="text;html=1;align=center;verticalAlign=middle;resizable=0;points=[];autosize=1;strokeColor=none;fillColor=none;" parent="1" vertex="1">
          <mxGeometry x="485" y="697" width="170" height="20" as="geometry" />
        </mxCell>
        <mxCell id="qBGxzSzK9V-PdyPtXiU0-45" value="push rtp ps stream" style="html=1;verticalAlign=bottom;endArrow=block;rounded=0;" parent="1" edge="1" source="10HyddcY0gIoOQVBEXPv-7">
          <mxGeometry width="80" relative="1" as="geometry">
            <mxPoint x="720.5" y="750" as="sourcePoint" />
            <mxPoint x="560" y="750" as="targetPoint" />
          </mxGeometry>
        </mxCell>
        <mxCell id="qBGxzSzK9V-PdyPtXiU0-48" value="srs 解析rtp ssrc 映射到stream" style="text;html=1;align=center;verticalAlign=middle;resizable=0;points=[];autosize=1;strokeColor=none;fillColor=none;" parent="1" vertex="1">
          <mxGeometry x="425" y="760" width="170" height="20" as="geometry" />
        </mxCell>
        <mxCell id="qBGxzSzK9V-PdyPtXiU0-53" value="" style="html=1;verticalAlign=bottom;endArrow=block;rounded=0;" parent="1" target="10HyddcY0gIoOQVBEXPv-6" edge="1">
          <mxGeometry width="80" relative="1" as="geometry">
            <mxPoint x="84" y="740" as="sourcePoint" />
            <mxPoint x="413.5" y="740" as="targetPoint" />
          </mxGeometry>
        </mxCell>
        <mxCell id="qBGxzSzK9V-PdyPtXiU0-54" value="rtmp subscribe" style="edgeLabel;html=1;align=center;verticalAlign=middle;resizable=0;points=[];" parent="qBGxzSzK9V-PdyPtXiU0-53" vertex="1" connectable="0">
          <mxGeometry x="-0.1108" y="-1" relative="1" as="geometry">
            <mxPoint as="offset" />
          </mxGeometry>
        </mxCell>
        <mxCell id="bC7WEgmkq_akePNeTHzV-7" value="ClusterNetwork&lt;div&gt;Manager&lt;/div&gt;" style="shape=umlLifeline;perimeter=lifelinePerimeter;whiteSpace=wrap;html=1;container=1;dropTarget=0;collapsible=0;recursiveResize=0;outlineConnect=0;portConstraint=eastwest;newEdgeStyle={&quot;edgeStyle&quot;:&quot;elbowEdgeStyle&quot;,&quot;elbow&quot;:&quot;vertical&quot;,&quot;curved&quot;:0,&quot;rounded&quot;:0};" vertex="1" parent="1">
          <mxGeometry x="220" y="1050" width="100" height="380" as="geometry" />
        </mxCell>
        <mxCell id="bC7WEgmkq_akePNeTHzV-8" style="edgeStyle=elbowEdgeStyle;rounded=0;orthogonalLoop=1;jettySize=auto;html=1;elbow=horizontal;curved=0;fontSize=12;startSize=8;endSize=8;" edge="1" parent="1">
          <mxGeometry relative="1" as="geometry">
            <mxPoint x="269.5" y="1129" as="sourcePoint" />
            <mxPoint x="399.5" y="1129" as="targetPoint" />
          </mxGeometry>
        </mxCell>
        <mxCell id="bC7WEgmkq_akePNeTHzV-12" value="获取媒体网络" style="edgeLabel;html=1;align=center;verticalAlign=middle;resizable=0;points=[];" vertex="1" connectable="0" parent="bC7WEgmkq_akePNeTHzV-8">
          <mxGeometry x="-0.4385" y="-2" relative="1" as="geometry">
            <mxPoint x="25" y="-1" as="offset" />
          </mxGeometry>
        </mxCell>
        <mxCell id="bC7WEgmkq_akePNeTHzV-9" value="SIPNetwork&lt;div&gt;Provider&lt;/div&gt;" style="shape=umlLifeline;perimeter=lifelinePerimeter;whiteSpace=wrap;html=1;container=1;dropTarget=0;collapsible=0;recursiveResize=0;outlineConnect=0;portConstraint=eastwest;newEdgeStyle={&quot;edgeStyle&quot;:&quot;elbowEdgeStyle&quot;,&quot;elbow&quot;:&quot;vertical&quot;,&quot;curved&quot;:0,&quot;rounded&quot;:0};" vertex="1" parent="1">
          <mxGeometry x="349" y="1050" width="100" height="380" as="geometry" />
        </mxCell>
        <mxCell id="bC7WEgmkq_akePNeTHzV-10" style="edgeStyle=elbowEdgeStyle;rounded=0;orthogonalLoop=1;jettySize=auto;html=1;elbow=vertical;curved=0;fontSize=12;startSize=8;endSize=8;" edge="1" parent="1" target="bC7WEgmkq_akePNeTHzV-11">
          <mxGeometry relative="1" as="geometry">
            <mxPoint x="400" y="1170" as="sourcePoint" />
            <mxPoint x="549" y="1170" as="targetPoint" />
          </mxGeometry>
        </mxCell>
        <mxCell id="bC7WEgmkq_akePNeTHzV-13" value="创建媒体网络" style="edgeLabel;html=1;align=center;verticalAlign=middle;resizable=0;points=[];" vertex="1" connectable="0" parent="bC7WEgmkq_akePNeTHzV-10">
          <mxGeometry x="0.0097" y="2" relative="1" as="geometry">
            <mxPoint as="offset" />
          </mxGeometry>
        </mxCell>
        <mxCell id="bC7WEgmkq_akePNeTHzV-22" style="edgeStyle=elbowEdgeStyle;rounded=0;orthogonalLoop=1;jettySize=auto;html=1;elbow=vertical;curved=0;" edge="1" parent="1" target="bC7WEgmkq_akePNeTHzV-15">
          <mxGeometry relative="1" as="geometry">
            <mxPoint x="529.5" y="1222" as="sourcePoint" />
            <mxPoint x="669.5" y="1222" as="targetPoint" />
          </mxGeometry>
        </mxCell>
        <mxCell id="bC7WEgmkq_akePNeTHzV-25" value="创建Session" style="edgeLabel;html=1;align=center;verticalAlign=middle;resizable=0;points=[];" vertex="1" connectable="0" parent="bC7WEgmkq_akePNeTHzV-22">
          <mxGeometry x="0.2571" y="-2" relative="1" as="geometry">
            <mxPoint x="-32" y="-4" as="offset" />
          </mxGeometry>
        </mxCell>
        <mxCell id="bC7WEgmkq_akePNeTHzV-11" value="SIPServer&lt;div&gt;Network&lt;br&gt;&lt;/div&gt;" style="shape=umlLifeline;perimeter=lifelinePerimeter;whiteSpace=wrap;html=1;container=1;dropTarget=0;collapsible=0;recursiveResize=0;outlineConnect=0;portConstraint=eastwest;newEdgeStyle={&quot;edgeStyle&quot;:&quot;elbowEdgeStyle&quot;,&quot;elbow&quot;:&quot;vertical&quot;,&quot;curved&quot;:0,&quot;rounded&quot;:0};" vertex="1" parent="1">
          <mxGeometry x="480" y="1050" width="100" height="380" as="geometry" />
        </mxCell>
        <mxCell id="bC7WEgmkq_akePNeTHzV-14" value="1. 启动SIP&lt;div&gt;2. 处理SIP消息&lt;/div&gt;&lt;div&gt;3. 发送SIP消息&lt;/div&gt;" style="text;html=1;align=left;verticalAlign=middle;resizable=0;points=[];autosize=1;strokeColor=none;fillColor=none;" vertex="1" parent="1">
          <mxGeometry x="515" y="1093" width="100" height="60" as="geometry" />
        </mxCell>
        <mxCell id="bC7WEgmkq_akePNeTHzV-34" style="edgeStyle=elbowEdgeStyle;rounded=0;orthogonalLoop=1;jettySize=auto;html=1;elbow=vertical;curved=0;" edge="1" parent="1">
          <mxGeometry relative="1" as="geometry">
            <mxPoint x="784.5" y="1270" as="sourcePoint" />
            <mxPoint x="926.5" y="1270" as="targetPoint" />
          </mxGeometry>
        </mxCell>
        <mxCell id="bC7WEgmkq_akePNeTHzV-35" value="通过Operation 发送指令" style="edgeLabel;html=1;align=center;verticalAlign=middle;resizable=0;points=[];" vertex="1" connectable="0" parent="bC7WEgmkq_akePNeTHzV-34">
          <mxGeometry x="0.4366" y="-3" relative="1" as="geometry">
            <mxPoint x="-21" y="-13" as="offset" />
          </mxGeometry>
        </mxCell>
        <mxCell id="bC7WEgmkq_akePNeTHzV-51" style="edgeStyle=elbowEdgeStyle;rounded=0;orthogonalLoop=1;jettySize=auto;html=1;elbow=vertical;curved=0;" edge="1" parent="1">
          <mxGeometry relative="1" as="geometry">
            <mxPoint x="789.5" y="1380" as="sourcePoint" />
            <mxPoint x="659.5" y="1380" as="targetPoint" />
          </mxGeometry>
        </mxCell>
        <mxCell id="bC7WEgmkq_akePNeTHzV-52" value="返回结果" style="edgeLabel;html=1;align=center;verticalAlign=middle;resizable=0;points=[];" vertex="1" connectable="0" parent="bC7WEgmkq_akePNeTHzV-51">
          <mxGeometry x="-0.2923" y="1" relative="1" as="geometry">
            <mxPoint as="offset" />
          </mxGeometry>
        </mxCell>
        <mxCell id="bC7WEgmkq_akePNeTHzV-15" value="&lt;div&gt;GB28181&lt;/div&gt;&lt;div&gt;DeviceSession&lt;br&gt;&lt;/div&gt;" style="shape=umlLifeline;perimeter=lifelinePerimeter;whiteSpace=wrap;html=1;container=1;dropTarget=0;collapsible=0;recursiveResize=0;outlineConnect=0;portConstraint=eastwest;newEdgeStyle={&quot;edgeStyle&quot;:&quot;elbowEdgeStyle&quot;,&quot;elbow&quot;:&quot;vertical&quot;,&quot;curved&quot;:0,&quot;rounded&quot;:0};" vertex="1" parent="1">
          <mxGeometry x="740" y="1050" width="100" height="380" as="geometry" />
        </mxCell>
        <mxCell id="bC7WEgmkq_akePNeTHzV-16" value="依赖SIPServer&lt;div&gt;Network&lt;/div&gt;" style="text;html=1;align=center;verticalAlign=middle;resizable=0;points=[];autosize=1;strokeColor=none;fillColor=none;" vertex="1" parent="1">
          <mxGeometry x="732" y="1093" width="100" height="40" as="geometry" />
        </mxCell>
        <mxCell id="bC7WEgmkq_akePNeTHzV-37" style="edgeStyle=elbowEdgeStyle;rounded=0;orthogonalLoop=1;jettySize=auto;html=1;elbow=vertical;curved=0;" edge="1" parent="1">
          <mxGeometry relative="1" as="geometry">
            <mxPoint x="1059.5" y="1286" as="targetPoint" />
            <mxPoint x="931.5" y="1286" as="sourcePoint" />
          </mxGeometry>
        </mxCell>
        <mxCell id="bC7WEgmkq_akePNeTHzV-38" value="通过Invoker 发送指令" style="edgeLabel;html=1;align=center;verticalAlign=middle;resizable=0;points=[];" vertex="1" connectable="0" parent="bC7WEgmkq_akePNeTHzV-37">
          <mxGeometry x="-0.375" y="-2" relative="1" as="geometry">
            <mxPoint x="19" y="-18" as="offset" />
          </mxGeometry>
        </mxCell>
        <mxCell id="bC7WEgmkq_akePNeTHzV-46" style="edgeStyle=elbowEdgeStyle;rounded=0;orthogonalLoop=1;jettySize=auto;html=1;elbow=vertical;curved=0;" edge="1" parent="1">
          <mxGeometry relative="1" as="geometry">
            <mxPoint x="930.5" y="1360" as="sourcePoint" />
            <mxPoint x="1189.5" y="1360" as="targetPoint" />
          </mxGeometry>
        </mxCell>
        <mxCell id="bC7WEgmkq_akePNeTHzV-48" value="如果是播流指令，发送指令后，&lt;div&gt;可能需要到流媒体获取播流地址&lt;/div&gt;" style="edgeLabel;html=1;align=center;verticalAlign=middle;resizable=0;points=[];" vertex="1" connectable="0" parent="bC7WEgmkq_akePNeTHzV-46">
          <mxGeometry x="-0.5212" y="-1" relative="1" as="geometry">
            <mxPoint x="88" y="-11" as="offset" />
          </mxGeometry>
        </mxCell>
        <mxCell id="bC7WEgmkq_akePNeTHzV-49" style="edgeStyle=elbowEdgeStyle;rounded=0;orthogonalLoop=1;jettySize=auto;html=1;elbow=vertical;curved=0;" edge="1" parent="1">
          <mxGeometry relative="1" as="geometry">
            <mxPoint x="931.5" y="1370" as="sourcePoint" />
            <mxPoint x="789.5" y="1370" as="targetPoint" />
          </mxGeometry>
        </mxCell>
        <mxCell id="bC7WEgmkq_akePNeTHzV-50" value="返回指令信息" style="edgeLabel;html=1;align=center;verticalAlign=middle;resizable=0;points=[];" vertex="1" connectable="0" parent="bC7WEgmkq_akePNeTHzV-49">
          <mxGeometry x="-0.5352" y="-1" relative="1" as="geometry">
            <mxPoint x="-38" as="offset" />
          </mxGeometry>
        </mxCell>
        <mxCell id="bC7WEgmkq_akePNeTHzV-17" value="&lt;div&gt;DefaultGB28181&lt;/div&gt;&lt;div&gt;MediaDevice&lt;/div&gt;&lt;div&gt;Operations&lt;br&gt;&lt;/div&gt;" style="shape=umlLifeline;perimeter=lifelinePerimeter;whiteSpace=wrap;html=1;container=1;dropTarget=0;collapsible=0;recursiveResize=0;outlineConnect=0;portConstraint=eastwest;newEdgeStyle={&quot;edgeStyle&quot;:&quot;elbowEdgeStyle&quot;,&quot;elbow&quot;:&quot;vertical&quot;,&quot;curved&quot;:0,&quot;rounded&quot;:0};" vertex="1" parent="1">
          <mxGeometry x="882" y="1050" width="100" height="380" as="geometry" />
        </mxCell>
        <mxCell id="bC7WEgmkq_akePNeTHzV-19" style="edgeStyle=elbowEdgeStyle;rounded=0;orthogonalLoop=1;jettySize=auto;html=1;elbow=vertical;curved=0;" edge="1" parent="1">
          <mxGeometry relative="1" as="geometry">
            <mxPoint x="119.5" y="1198" as="sourcePoint" />
            <mxPoint x="529.5" y="1198" as="targetPoint" />
          </mxGeometry>
        </mxCell>
        <mxCell id="bC7WEgmkq_akePNeTHzV-20" value="设备注册SIP" style="edgeLabel;html=1;align=center;verticalAlign=middle;resizable=0;points=[];" vertex="1" connectable="0" parent="bC7WEgmkq_akePNeTHzV-19">
          <mxGeometry x="-0.2244" y="1" relative="1" as="geometry">
            <mxPoint as="offset" />
          </mxGeometry>
        </mxCell>
        <mxCell id="bC7WEgmkq_akePNeTHzV-18" value="客户端/设备" style="shape=umlLifeline;perimeter=lifelinePerimeter;whiteSpace=wrap;html=1;container=1;dropTarget=0;collapsible=0;recursiveResize=0;outlineConnect=0;portConstraint=eastwest;newEdgeStyle={&quot;edgeStyle&quot;:&quot;elbowEdgeStyle&quot;,&quot;elbow&quot;:&quot;vertical&quot;,&quot;curved&quot;:0,&quot;rounded&quot;:0};" vertex="1" parent="1">
          <mxGeometry x="70" y="1049" width="100" height="380" as="geometry" />
        </mxCell>
        <mxCell id="bC7WEgmkq_akePNeTHzV-21" value="SIP 身份验证，自动创建设备" style="text;html=1;align=center;verticalAlign=middle;resizable=0;points=[];autosize=1;strokeColor=none;fillColor=none;" vertex="1" parent="1">
          <mxGeometry x="450" y="1198" width="180" height="30" as="geometry" />
        </mxCell>
        <mxCell id="bC7WEgmkq_akePNeTHzV-26" style="edgeStyle=elbowEdgeStyle;rounded=0;orthogonalLoop=1;jettySize=auto;html=1;elbow=vertical;curved=0;" edge="1" parent="1">
          <mxGeometry relative="1" as="geometry">
            <mxPoint x="119.5" y="1244" as="sourcePoint" />
            <mxPoint x="659.5" y="1244" as="targetPoint" />
          </mxGeometry>
        </mxCell>
        <mxCell id="bC7WEgmkq_akePNeTHzV-27" value="客户端通过GB28181控制摄像头播放" style="edgeLabel;html=1;align=center;verticalAlign=middle;resizable=0;points=[];" vertex="1" connectable="0" parent="bC7WEgmkq_akePNeTHzV-26">
          <mxGeometry x="-0.0713" y="3" relative="1" as="geometry">
            <mxPoint as="offset" />
          </mxGeometry>
        </mxCell>
        <mxCell id="bC7WEgmkq_akePNeTHzV-31" value="Text" style="edgeLabel;html=1;align=center;verticalAlign=middle;resizable=0;points=[];" vertex="1" connectable="0" parent="bC7WEgmkq_akePNeTHzV-26">
          <mxGeometry x="0.2926" y="4" relative="1" as="geometry">
            <mxPoint as="offset" />
          </mxGeometry>
        </mxCell>
        <mxCell id="bC7WEgmkq_akePNeTHzV-32" style="edgeStyle=elbowEdgeStyle;rounded=0;orthogonalLoop=1;jettySize=auto;html=1;elbow=vertical;curved=0;" edge="1" parent="1">
          <mxGeometry relative="1" as="geometry">
            <mxPoint x="659.5" y="1260" as="sourcePoint" />
            <mxPoint x="789.5" y="1260" as="targetPoint" />
          </mxGeometry>
        </mxCell>
        <mxCell id="bC7WEgmkq_akePNeTHzV-33" value="通过session发送指令" style="edgeLabel;html=1;align=center;verticalAlign=middle;resizable=0;points=[];" vertex="1" connectable="0" parent="bC7WEgmkq_akePNeTHzV-32">
          <mxGeometry x="-0.2615" y="-3" relative="1" as="geometry">
            <mxPoint x="11" y="-12" as="offset" />
          </mxGeometry>
        </mxCell>
        <mxCell id="bC7WEgmkq_akePNeTHzV-53" style="edgeStyle=elbowEdgeStyle;rounded=0;orthogonalLoop=1;jettySize=auto;html=1;elbow=vertical;curved=0;" edge="1" parent="1">
          <mxGeometry relative="1" as="geometry">
            <mxPoint x="660" y="1390" as="sourcePoint" />
            <mxPoint x="120" y="1390" as="targetPoint" />
          </mxGeometry>
        </mxCell>
        <mxCell id="bC7WEgmkq_akePNeTHzV-54" value="返回结果：例如播流指令需要返回播流地址" style="edgeLabel;html=1;align=center;verticalAlign=middle;resizable=0;points=[];" vertex="1" connectable="0" parent="bC7WEgmkq_akePNeTHzV-53">
          <mxGeometry x="-0.1796" y="-2" relative="1" as="geometry">
            <mxPoint x="1" as="offset" />
          </mxGeometry>
        </mxCell>
        <mxCell id="bC7WEgmkq_akePNeTHzV-30" value="&lt;div&gt;GB28181&lt;/div&gt;&lt;div&gt;Protocol&lt;/div&gt;" style="shape=umlLifeline;perimeter=lifelinePerimeter;whiteSpace=wrap;html=1;container=1;dropTarget=0;collapsible=0;recursiveResize=0;outlineConnect=0;portConstraint=eastwest;newEdgeStyle={&quot;edgeStyle&quot;:&quot;elbowEdgeStyle&quot;,&quot;elbow&quot;:&quot;vertical&quot;,&quot;curved&quot;:0,&quot;rounded&quot;:0};" vertex="1" parent="1">
          <mxGeometry x="610" y="1050" width="100" height="380" as="geometry" />
        </mxCell>
        <mxCell id="bC7WEgmkq_akePNeTHzV-39" style="edgeStyle=elbowEdgeStyle;rounded=0;orthogonalLoop=1;jettySize=auto;html=1;elbow=vertical;curved=0;" edge="1" parent="1">
          <mxGeometry relative="1" as="geometry">
            <mxPoint x="1059.5" y="1306" as="sourcePoint" />
            <mxPoint x="529.5" y="1306" as="targetPoint" />
          </mxGeometry>
        </mxCell>
        <mxCell id="bC7WEgmkq_akePNeTHzV-40" value="通过sipLayer 发送报文" style="edgeLabel;html=1;align=center;verticalAlign=middle;resizable=0;points=[];" vertex="1" connectable="0" parent="bC7WEgmkq_akePNeTHzV-39">
          <mxGeometry x="-0.1321" y="2" relative="1" as="geometry">
            <mxPoint as="offset" />
          </mxGeometry>
        </mxCell>
        <mxCell id="bC7WEgmkq_akePNeTHzV-44" style="edgeStyle=elbowEdgeStyle;rounded=0;orthogonalLoop=1;jettySize=auto;html=1;elbow=vertical;curved=0;" edge="1" parent="1">
          <mxGeometry relative="1" as="geometry">
            <mxPoint x="1059.5" y="1330" as="sourcePoint" />
            <mxPoint x="930" y="1330" as="targetPoint" />
          </mxGeometry>
        </mxCell>
        <mxCell id="bC7WEgmkq_akePNeTHzV-47" value="返回发送指令结果" style="edgeLabel;html=1;align=center;verticalAlign=middle;resizable=0;points=[];" vertex="1" connectable="0" parent="bC7WEgmkq_akePNeTHzV-44">
          <mxGeometry x="-0.444" y="-2" relative="1" as="geometry">
            <mxPoint x="-23" as="offset" />
          </mxGeometry>
        </mxCell>
        <mxCell id="bC7WEgmkq_akePNeTHzV-36" value="&lt;div&gt;DefaultGB28181&lt;/div&gt;&lt;div&gt;Invoker&lt;br&gt;&lt;/div&gt;" style="shape=umlLifeline;perimeter=lifelinePerimeter;whiteSpace=wrap;html=1;container=1;dropTarget=0;collapsible=0;recursiveResize=0;outlineConnect=0;portConstraint=eastwest;newEdgeStyle={&quot;edgeStyle&quot;:&quot;elbowEdgeStyle&quot;,&quot;elbow&quot;:&quot;vertical&quot;,&quot;curved&quot;:0,&quot;rounded&quot;:0};" vertex="1" parent="1">
          <mxGeometry x="1010" y="1050" width="100" height="390" as="geometry" />
        </mxCell>
        <mxCell id="bC7WEgmkq_akePNeTHzV-41" style="edgeStyle=elbowEdgeStyle;rounded=0;orthogonalLoop=1;jettySize=auto;html=1;elbow=vertical;curved=0;" edge="1" parent="1">
          <mxGeometry relative="1" as="geometry">
            <mxPoint x="529.5" y="1318" as="sourcePoint" />
            <mxPoint x="119.5" y="1318" as="targetPoint" />
          </mxGeometry>
        </mxCell>
        <mxCell id="bC7WEgmkq_akePNeTHzV-42" value="发送结果" style="edgeLabel;html=1;align=center;verticalAlign=middle;resizable=0;points=[];" vertex="1" connectable="0" parent="bC7WEgmkq_akePNeTHzV-41">
          <mxGeometry x="-0.3336" y="1" relative="1" as="geometry">
            <mxPoint as="offset" />
          </mxGeometry>
        </mxCell>
        <mxCell id="bC7WEgmkq_akePNeTHzV-43" value="告诉设备推流到流媒体" style="edgeLabel;html=1;align=center;verticalAlign=middle;resizable=0;points=[];" vertex="1" connectable="0" parent="bC7WEgmkq_akePNeTHzV-41">
          <mxGeometry x="0.1463" relative="1" as="geometry">
            <mxPoint as="offset" />
          </mxGeometry>
        </mxCell>
        <mxCell id="bC7WEgmkq_akePNeTHzV-45" value="流媒体" style="shape=umlLifeline;perimeter=lifelinePerimeter;whiteSpace=wrap;html=1;container=1;dropTarget=0;collapsible=0;recursiveResize=0;outlineConnect=0;portConstraint=eastwest;newEdgeStyle={&quot;edgeStyle&quot;:&quot;elbowEdgeStyle&quot;,&quot;elbow&quot;:&quot;vertical&quot;,&quot;curved&quot;:0,&quot;rounded&quot;:0};" vertex="1" parent="1">
          <mxGeometry x="1141" y="1045" width="100" height="390" as="geometry" />
        </mxCell>
      </root>
    </mxGraphModel>
  </diagram>
</mxfile>
